<svg id="visual" viewBox="0 0 900 600" width="900" height="600" xmlns="http://www.w3.org/2000/svg" xmlns:xlink="http://www.w3.org/1999/xlink" version="1.1"><rect x="0" y="0" width="900" height="600" fill="#001220"></rect><path d="M0 185L21.5 179C43 173 86 161 128.8 176.3C171.7 191.7 214.3 234.3 257.2 239C300 243.7 343 210.3 385.8 188.2C428.7 166 471.3 155 514.2 149.3C557 143.7 600 143.3 642.8 162.5C685.7 181.7 728.3 220.3 771.2 242.7C814 265 857 271 878.5 274L900 277L900 601L878.5 601C857 601 814 601 771.2 601C728.3 601 685.7 601 642.8 601C600 601 557 601 514.2 601C471.3 601 428.7 601 385.8 601C343 601 300 601 257.2 601C214.3 601 171.7 601 128.8 601C86 601 43 601 21.5 601L0 601Z" fill="#fa7268"></path><path d="M0 333L21.5 335.7C43 338.3 86 343.7 128.8 329.5C171.7 315.3 214.3 281.7 257.2 263.3C300 245 343 242 385.8 247.8C428.7 253.7 471.3 268.3 514.2 286C557 303.7 600 324.3 642.8 319.7C685.7 315 728.3 285 771.2 266C814 247 857 239 878.5 235L900 231L900 601L878.5 601C857 601 814 601 771.2 601C728.3 601 685.7 601 642.8 601C600 601 557 601 514.2 601C471.3 601 428.7 601 385.8 601C343 601 300 601 257.2 601C214.3 601 171.7 601 128.8 601C86 601 43 601 21.5 601L0 601Z" fill="#eb5967"></path><path d="M0 427L21.5 427.5C43 428 86 429 128.8 422.7C171.7 416.3 214.3 402.7 257.2 394C300 385.3 343 381.7 385.8 373.8C428.7 366 471.3 354 514.2 363.3C557 372.7 600 403.3 642.8 419.2C685.7 435 728.3 436 771.2 430.5C814 425 857 413 878.5 407L900 401L900 601L878.5 601C857 601 814 601 771.2 601C728.3 601 685.7 601 642.8 601C600 601 557 601 514.2 601C471.3 601 428.7 601 385.8 601C343 601 300 601 257.2 601C214.3 601 171.7 601 128.8 601C86 601 43 601 21.5 601L0 601Z" fill="#da3f67"></path><path d="M0 439L21.5 452C43 465 86 491 128.8 504.2C171.7 517.3 214.3 517.7 257.2 516.3C300 515 343 512 385.8 503.2C428.7 494.3 471.3 479.7 514.2 470.3C557 461 600 457 642.8 464.2C685.7 471.3 728.3 489.7 771.2 500.7C814 511.7 857 515.3 878.5 517.2L900 519L900 601L878.5 601C857 601 814 601 771.2 601C728.3 601 685.7 601 642.8 601C600 601 557 601 514.2 601C471.3 601 428.7 601 385.8 601C343 601 300 601 257.2 601C214.3 601 171.7 601 128.8 601C86 601 43 601 21.5 601L0 601Z" fill="#c62368"></path></svg>